# xmcd
# Track frame offsets:
# 150
# 17518
# 37695
# 56030
# 70468
# 90080
# 100730
# 116680
# 130918
# 141943
# 157955
#
# Disc length: 2302 seconds
# Revision: 0
# Processed by: cddbd v1.4PL0 Copyright (c) Steve Scherf et al.
# Submitted via: VisiTrax 2.9.5.180 - For more info visit www.synapsa.com
#
DISCID=8508fc0b
DTITLE=Lee Hazlewood and Anne Hanski - Gypsies and Indians
DYEAR=1993
DGENRE=
TTITLE0=Gypsies And Indians
TTITLE1=My Findland
TTITLE2=Summerwine
TTITLE3=Some Velvet Morning
TTITLE4=Please Come To Boston
TTITLE5=Is Making A Little Love Out Of The Question
TTITLE6=Sand
TTITLE7=Ladybird
TTITLE8=Tracy´s SOng
TTITLE9=Guess I´ve Been Holding On Too Long
TTITLE10=That´s Been Done Before
EXTD=Recorde in  Findland\nOnly Releaset in Findland
EXTT0=
EXTT1=
EXTT2=
EXTT3=
EXTT4=
EXTT5=
EXTT6=
EXTT7=
EXTT8=
EXTT9=
EXTT10=
PLAYORDER=
